<mxfile host="app.diagrams.net" modified="2024-02-17T00:32:03.048Z" agent="Mozilla/5.0 (Windows NT 10.0; Win64; x64) AppleWebKit/537.36 (KHTML, like Gecko) Chrome/121.0.0.0 Safari/537.36" etag="T6TdoMhioS4DDyKbt1C_" version="23.1.5" type="device">
  <diagram name="PÃ¡gina-1" id="RNsZwa4oHTEHqX5YBlmS">
    <mxGraphModel dx="667" dy="363" grid="1" gridSize="10" guides="1" tooltips="1" connect="1" arrows="1" fold="1" page="1" pageScale="1" pageWidth="827" pageHeight="1169" math="0" shadow="0">
      <root>
        <mxCell id="0" />
        <mxCell id="1" parent="0" />
        <mxCell id="LvRBQp2cZYdZzrYtCc5s-10" value="" style="edgeStyle=orthogonalEdgeStyle;rounded=0;orthogonalLoop=1;jettySize=auto;html=1;" edge="1" parent="1" source="LvRBQp2cZYdZzrYtCc5s-1" target="LvRBQp2cZYdZzrYtCc5s-9">
          <mxGeometry relative="1" as="geometry" />
        </mxCell>
        <mxCell id="LvRBQp2cZYdZzrYtCc5s-17" value="1" style="edgeLabel;html=1;align=center;verticalAlign=middle;resizable=0;points=[];" vertex="1" connectable="0" parent="LvRBQp2cZYdZzrYtCc5s-10">
          <mxGeometry x="-0.6035" y="2" relative="1" as="geometry">
            <mxPoint as="offset" />
          </mxGeometry>
        </mxCell>
        <mxCell id="LvRBQp2cZYdZzrYtCc5s-1" value="CLIENTE" style="rounded=0;whiteSpace=wrap;html=1;" vertex="1" parent="1">
          <mxGeometry x="350" y="370" width="120" height="60" as="geometry" />
        </mxCell>
        <mxCell id="LvRBQp2cZYdZzrYtCc5s-2" value="PRODUTO" style="rounded=0;whiteSpace=wrap;html=1;" vertex="1" parent="1">
          <mxGeometry x="580" y="510" width="120" height="60" as="geometry" />
        </mxCell>
        <mxCell id="LvRBQp2cZYdZzrYtCc5s-4" value="PEDIDO" style="rounded=0;whiteSpace=wrap;html=1;" vertex="1" parent="1">
          <mxGeometry x="350" y="590" width="120" height="60" as="geometry" />
        </mxCell>
        <mxCell id="LvRBQp2cZYdZzrYtCc5s-14" style="edgeStyle=orthogonalEdgeStyle;rounded=0;orthogonalLoop=1;jettySize=auto;html=1;exitX=0.5;exitY=1;exitDx=0;exitDy=0;" edge="1" parent="1" source="LvRBQp2cZYdZzrYtCc5s-9" target="LvRBQp2cZYdZzrYtCc5s-4">
          <mxGeometry relative="1" as="geometry" />
        </mxCell>
        <mxCell id="LvRBQp2cZYdZzrYtCc5s-18" value="N" style="edgeLabel;html=1;align=center;verticalAlign=middle;resizable=0;points=[];" vertex="1" connectable="0" parent="LvRBQp2cZYdZzrYtCc5s-14">
          <mxGeometry x="0.0335" y="-1" relative="1" as="geometry">
            <mxPoint as="offset" />
          </mxGeometry>
        </mxCell>
        <mxCell id="LvRBQp2cZYdZzrYtCc5s-9" value="" style="rhombus;whiteSpace=wrap;html=1;rounded=0;" vertex="1" parent="1">
          <mxGeometry x="370" y="470" width="80" height="70" as="geometry" />
        </mxCell>
        <mxCell id="LvRBQp2cZYdZzrYtCc5s-15" style="edgeStyle=orthogonalEdgeStyle;rounded=0;orthogonalLoop=1;jettySize=auto;html=1;entryX=0.537;entryY=1.016;entryDx=0;entryDy=0;entryPerimeter=0;" edge="1" parent="1" source="LvRBQp2cZYdZzrYtCc5s-4" target="LvRBQp2cZYdZzrYtCc5s-2">
          <mxGeometry relative="1" as="geometry" />
        </mxCell>
        <mxCell id="LvRBQp2cZYdZzrYtCc5s-19" value="N" style="edgeLabel;html=1;align=center;verticalAlign=middle;resizable=0;points=[];" vertex="1" connectable="0" parent="LvRBQp2cZYdZzrYtCc5s-15">
          <mxGeometry x="-0.8441" relative="1" as="geometry">
            <mxPoint as="offset" />
          </mxGeometry>
        </mxCell>
        <mxCell id="LvRBQp2cZYdZzrYtCc5s-16" value="" style="rhombus;whiteSpace=wrap;html=1;" vertex="1" parent="1">
          <mxGeometry x="510" y="580" width="80" height="80" as="geometry" />
        </mxCell>
        <mxCell id="LvRBQp2cZYdZzrYtCc5s-20" value="N" style="text;html=1;align=center;verticalAlign=middle;resizable=0;points=[];autosize=1;strokeColor=none;fillColor=none;" vertex="1" parent="1">
          <mxGeometry x="615" y="598" width="30" height="30" as="geometry" />
        </mxCell>
      </root>
    </mxGraphModel>
  </diagram>
</mxfile>
